Sniper 2 (2002) MultiSub DVDRip XviD AC3 FASTERWOLFSniper 2 (2002) MultiSub DVDRip XviD AC3.mkv
Format : Matroska
Format version : Version 4 / Version 2
File size : 1,37 GiB
Duration : 1h 26mn
Overall bit rate : 2 263 Kbps
Encoded date : UTC 2010-02-22 21:41:31
Writing application : mkvmerge v5.9.0 ('On The Loose') built on Dec 9 2012 15:37:01
Writing library : libebml v1.3.0 + libmatroska v1.4.0

Video
ID : 1
Format : MPEG-4 Visual
Format profile : Advanced Simple@L5
Format settings, BVOP : ╬¥╬▒╬╣
Format settings, QPel : ╬î╧ç╬╣
Format settings, GMC : 0 warppoint
Codec ID : V_MS/VFW/FOURCC / XVID
Codec ID/Hint : XviD
Duration : 1h 26mn
Bit rate : 1 770 Kbps
Width : 720 ╬╡╬╣╬║╬┐╬╜╬┐╧â╧ä╬┐╬╣╧ç╬╡╬»╬▒
Height : 384 ╬╡╬╣╬║╬┐╬╜╬┐╧â╧ä╬┐╬╣╧ç╬╡╬»╬▒
Display aspect ratio : 1,85:1
Frame rate : 25,000 fps
Color space : YUV
Chroma subsampling : 4:2:0
Bit depth : 8 bits
Scan type : ╬ú╧à╬╜╬╡╧ç╬«╧é ╧â╬¼╧ü╧ë╧â╬╖
Bits/(Pixel*Frame) : 0.256
Stream size : 1,07 GiB (78%)
Writing library : XviD 65
Default : ╬¥╬▒╬╣
Forced : ╬î╧ç╬╣

╬ë╧ç╬┐╧é
ID : 2
Format : AC-3
Format/Info : Audio Coding 3
Mode extension : CM (complete main)
Format settings, Endianness : Big
Muxing mode : Header stripping
Codec ID : A_AC3
Duration : 1h 26mn
Bit rate : 448 Kbps
Channel(s) : 6 ╬║╬▒╬╜╬¼╬╗╬╣╬▒
Channel positions : Front: L C R, Side: L R, LFE
Sampling rate : 48,0 KHz
Bit depth : 16 bits
Stream size : 278 MiB (20%)
Default : ╬¥╬▒╬╣
Forced : ╬î╧ç╬╣

Subtitles: Brazilian,Bulgarian,Czech,Danish,English,Estonian,Finnish,French,
Greek,Indonesian,Norwegian,Polish,Portuguese,Romanian,RUS,Spanish,
Swedish,Turkish,Vietnamese
 
http://s15.postimg.org/56fdsq88b/image.jpg
 
http://s15.postimg.org/qu4c368mj/image.jpg
 
http://s15.postimg.org/5yi1rxcff/image.jpg